<svg width="449" height="102" viewBox="0 0 449 102" fill="none" xmlns="http://www.w3.org/2000/svg">
<path d="M11.913 100.896C8.67034 100.896 5.98234 99.9147 3.849 97.952C1.801 95.904 0.777005 93.3867 0.777005 90.4C0.777005 87.4133 1.801 84.9387 3.849 82.976C5.98234 80.928 8.67034 79.904 11.913 79.904C15.0703 79.904 17.673 80.928 19.721 82.976C21.769 84.9387 22.793 87.4133 22.793 90.4C22.793 93.3867 21.769 95.904 19.721 97.952C17.673 99.9147 15.0703 100.896 11.913 100.896Z" fill="#B11949"/>
<path d="M65.899 43.808H53.483V100H35.307V43.808H27.243V29.088H35.307V25.504C35.307 16.8 37.7817 10.4 42.731 6.30399C47.6803 2.208 55.147 0.287997 65.131 0.543999V15.648C60.779 15.5627 57.7497 16.288 56.043 17.824C54.3363 19.36 53.483 22.1333 53.483 26.144V29.088H65.899V43.808ZM69.064 64.288C69.064 57.12 70.472 50.7627 73.288 45.216C76.1893 39.6693 80.072 35.4027 84.936 32.416C89.8853 29.4293 95.3893 27.936 101.448 27.936C106.739 27.936 111.347 29.0027 115.272 31.136C119.283 33.2693 122.483 35.9573 124.872 39.2V29.088H142.92V100H124.872V89.632C122.568 92.96 119.368 95.7333 115.272 97.952C111.261 100.085 106.611 101.152 101.32 101.152C95.3467 101.152 89.8853 99.616 84.936 96.544C80.072 93.472 76.1893 89.1627 73.288 83.616C70.472 77.984 69.064 71.5413 69.064 64.288ZM124.872 64.544C124.872 60.192 124.019 56.48 122.312 53.408C120.605 50.2507 118.301 47.8613 115.4 46.24C112.499 44.5333 109.384 43.68 106.056 43.68C102.728 43.68 99.656 44.4907 96.84 46.112C94.024 47.7333 91.72 50.1227 89.928 53.28C88.2213 56.352 87.368 60.0213 87.368 64.288C87.368 68.5547 88.2213 72.3093 89.928 75.552C91.72 78.7093 94.024 81.1413 96.84 82.848C99.7413 84.5547 102.813 85.408 106.056 85.408C109.384 85.408 112.499 84.5973 115.4 82.976C118.301 81.2693 120.605 78.88 122.312 75.808C124.019 72.6507 124.872 68.896 124.872 64.544ZM183.718 101.152C177.915 101.152 172.71 100.128 168.102 98.08C163.494 95.9467 159.825 93.088 157.094 89.504C154.449 85.92 152.998 81.952 152.742 77.6H170.79C171.131 80.3307 172.454 82.592 174.758 84.384C177.147 86.176 180.091 87.072 183.59 87.072C187.003 87.072 189.649 86.3893 191.526 85.024C193.489 83.6587 194.47 81.9093 194.47 79.776C194.47 77.472 193.275 75.7653 190.886 74.656C188.582 73.4613 184.87 72.1813 179.75 70.816C174.459 69.536 170.107 68.2133 166.694 66.848C163.366 65.4827 160.465 63.392 157.99 60.576C155.601 57.76 154.406 53.9627 154.406 49.184C154.406 45.2587 155.515 41.6747 157.734 38.432C160.038 35.1893 163.281 32.6293 167.462 30.752C171.729 28.8747 176.721 27.936 182.438 27.936C190.886 27.936 197.627 30.0693 202.662 34.336C207.697 38.5173 210.47 44.192 210.982 51.36H193.83C193.574 48.544 192.379 46.3253 190.246 44.704C188.198 42.9973 185.425 42.144 181.926 42.144C178.683 42.144 176.166 42.7413 174.374 43.936C172.667 45.1307 171.814 46.7947 171.814 48.928C171.814 51.3173 173.009 53.152 175.398 54.432C177.787 55.6267 181.499 56.864 186.534 58.144C191.654 59.424 195.878 60.7467 199.206 62.112C202.534 63.4773 205.393 65.6107 207.782 68.512C210.257 71.328 211.537 75.0827 211.622 79.776C211.622 83.872 210.47 87.5413 208.166 90.784C205.947 94.0267 202.705 96.5867 198.438 98.464C194.257 100.256 189.35 101.152 183.718 101.152ZM262.428 28.064C267.804 28.064 272.583 29.2587 276.764 31.648C280.945 33.952 284.188 37.408 286.492 42.016C288.881 46.5387 290.076 52 290.076 58.4V100H272.156V60.832C272.156 55.2 270.748 50.8907 267.932 47.904C265.116 44.832 261.276 43.296 256.412 43.296C251.463 43.296 247.537 44.832 244.636 47.904C241.82 50.8907 240.412 55.2 240.412 60.832V100H222.492V5.28H240.412V37.92C242.716 34.848 245.788 32.4587 249.628 30.752C253.468 28.96 257.735 28.064 262.428 28.064ZM334.765 101.152C327.938 101.152 321.794 99.6587 316.333 96.672C310.872 93.6 306.562 89.2907 303.405 83.744C300.333 78.1973 298.797 71.7973 298.797 64.544C298.797 57.2907 300.376 50.8907 303.533 45.344C306.776 39.7973 311.17 35.5307 316.717 32.544C322.264 29.472 328.45 27.936 335.277 27.936C342.104 27.936 348.29 29.472 353.837 32.544C359.384 35.5307 363.736 39.7973 366.893 45.344C370.136 50.8907 371.757 57.2907 371.757 64.544C371.757 71.7973 370.093 78.1973 366.765 83.744C363.522 89.2907 359.085 93.6 353.453 96.672C347.906 99.6587 341.677 101.152 334.765 101.152ZM334.765 85.536C338.008 85.536 341.037 84.768 343.853 83.232C346.754 81.6107 349.058 79.2213 350.765 76.064C352.472 72.9067 353.325 69.0667 353.325 64.544C353.325 57.8027 351.533 52.64 347.949 49.056C344.45 45.3867 340.141 43.552 335.021 43.552C329.901 43.552 325.592 45.3867 322.093 49.056C318.68 52.64 316.973 57.8027 316.973 64.544C316.973 71.2853 318.637 76.4907 321.965 80.16C325.378 83.744 329.645 85.536 334.765 85.536ZM420.358 28.064C428.806 28.064 435.633 30.752 440.838 36.128C446.043 41.4187 448.646 48.8427 448.646 58.4V100H430.726V60.832C430.726 55.2 429.318 50.8907 426.502 47.904C423.686 44.832 419.846 43.296 414.982 43.296C410.033 43.296 406.107 44.832 403.206 47.904C400.39 50.8907 398.982 55.2 398.982 60.832V100H381.062V29.088H398.982V37.92C401.371 34.848 404.401 32.4587 408.07 30.752C411.825 28.96 415.921 28.064 420.358 28.064Z" fill="#330A17"/>
</svg>
